<?xml version="1.0" encoding="UTF-8"?>
<!DOCTYPE svg PUBLIC "-//W3C//DTD SVG 1.1//EN" "http://www.w3.org/Graphics/SVG/1.1/DTD/svg11.dtd">
<svg xmlns="http://www.w3.org/2000/svg" version="1.1" width="512px" height="512px" style="shape-rendering:geometricPrecision; text-rendering:geometricPrecision; image-rendering:optimizeQuality; fill-rule:evenodd; clip-rule:evenodd" xmlns:xlink="http://www.w3.org/1999/xlink">
<g><path style="opacity:0.993" fill="#1B89D3" d="M 60.5,-0.5 C 190.5,-0.5 320.5,-0.5 450.5,-0.5C 483.167,7.5 503.5,27.8333 511.5,60.5C 511.5,190.5 511.5,320.5 511.5,450.5C 503.5,483.167 483.167,503.5 450.5,511.5C 320.5,511.5 190.5,511.5 60.5,511.5C 27.8333,503.5 7.5,483.167 -0.5,450.5C -0.5,320.5 -0.5,190.5 -0.5,60.5C 7.5,27.8333 27.8333,7.5 60.5,-0.5 Z M 269.5,36.5 C 280.268,35.7871 287.435,40.4538 291,50.5C 305.76,157.486 320.427,264.486 335,371.5C 346.051,337.009 356.718,302.342 367,267.5C 370.35,260.576 375.85,256.742 383.5,256C 407.833,255.333 432.167,255.333 456.5,256C 467.142,257.309 473.142,263.309 474.5,274C 473.603,282.806 468.936,288.473 460.5,291C 439.159,291.167 417.826,291.667 396.5,292.5C 379.668,348.494 362.834,404.494 346,460.5C 340.713,472.73 331.88,476.564 319.5,472C 314.761,468.687 311.928,464.187 311,458.5C 297.563,357.992 283.563,257.659 269,157.5C 251.839,235.975 234.172,314.308 216,392.5C 209.091,401.686 200.591,403.519 190.5,398C 187.567,395.736 185.4,392.902 184,389.5C 170.475,339.4 156.642,289.4 142.5,239.5C 136.075,254.021 129.908,268.688 124,283.5C 121.072,287.381 117.239,289.881 112.5,291C 91.8333,291.667 71.1667,291.667 50.5,291C 37.154,285.632 33.654,276.465 40,263.5C 42.2643,260.567 45.0976,258.4 48.5,257C 64.7946,255.76 81.1279,255.094 97.5,255C 108.662,227.517 119.829,200.017 131,172.5C 138.281,163.937 146.781,162.437 156.5,168C 158.7,170.234 160.533,172.734 162,175.5C 174.035,219.645 186.368,263.645 199,307.5C 218.49,221.207 237.823,134.874 257,48.5C 259.769,42.8947 263.936,38.8947 269.5,36.5 Z"/></g>
</svg>
